<svg width="32" height="32" viewBox="0 0 32 32" fill="none" xmlns="http://www.w3.org/2000/svg">
<path d="M16.8 4.8C17.6 4.8 18.4 4.8 19.2 4.8C19.4 6.6 20.2 8.2 21.4 9.4C22.6 10.6 24.2 11.4 26 11.6V15.2C24.6 15.2 23.2 14.8 22 14.2C21.4 13.8 20.8 13.4 20.4 12.8V20.8C20.4 22.6 19.8 24.4 18.6 25.8C17.4 27.2 15.8 28.2 14 28.6C12.2 29 10.4 28.8 8.8 28C7.2 27.2 5.8 25.8 5 24.2C4.2 22.6 4 20.8 4.4 19C4.8 17.2 5.8 15.6 7.2 14.4C8.6 13.2 10.4 12.6 12.2 12.6C12.4 12.6 12.6 12.6 12.8 12.6V16.4C12.6 16.4 12.4 16.4 12.2 16.4C11.2 16.4 10.2 16.8 9.6 17.4C9 18 8.6 18.8 8.6 19.8C8.6 20.8 9 21.8 9.6 22.4C10.2 23 11.2 23.4 12.2 23.4C13.2 23.4 14.2 23 14.8 22.4C15.4 21.8 15.8 21 15.8 20V4.8H16.8Z" fill="#9CA3AF"/>
</svg>
